<svg id="drawing" xmlns="http://www.w3.org/2000/svg" viewBox="0 0 1450 230" preserveAspectRatio="xMinYMin slice">
    <path d="M0,206.81c17.41-3.57,52.84,1.58,62.65,2.38,9.81,.8,48.04-.25,60.45-1.81,12.41-1.56,15.21,.23,6.2-8.5s-17.82-26.16-2.8-45.99,33.03-31.91,30.23-60.65c-2.8-28.74-12.61-43.21-11.41-1.38,1.2,41.83,37.63,55.9,62.25,59.86,24.62,3.96,89.67-11.69,103.69,2.97,14.01,14.67,15.61,27.16,18.42,36.67,2.8,9.51,3.4,11.69,1,15.66-2.41,3.96-4.8,12.49,17.01,11.1,21.82-1.39,21.22-8.52,11.61-16.85s-13.41-14.07-10.21-32.71c3.2-18.63,9.61-41.82-11.61-41.82s-55.45,18.43-51.44,24.78c4,6.34,5.6,7.14,2.2,13.68s-6.21,15.06-4.2,22.2c2,7.14,4,9.32,.2,14.87-3.8,5.55-2.2,10.7,14.21,11.3,16.41,.6,25.02-3.96,15.61-10.11-9.41-6.14-11.61-9.32-5.4-22.6s7.21-12.09-3.8-19.23c-11.01-7.14-10.41-19.03-11.81-28.74s-2.6-20.61-22.22-4.96c-19.62,15.66-40.03,19.43-69.86,16.45-29.82-2.97-46.24-31.71-57.85-23.19-11.61,8.52-35.83,43.01-33.63,54.9s7.41,18.63,13.21,23.19c5.8,4.56,13.61,13.28,3.4,12.09-10.21-1.19-19.22,.79-23.22-5.75-4-6.54-2.8-12.69-4.4-18.24-1.6-5.55-8.01-7.14-8.01-13.88s8.41-6.94,7.41-22.2c-1-15.26-4-26.36-7.01-14.47s-9.81,15.46-13.41,17.44c-3.6,1.98-3.8,5.15-1.4,11.5,2.41,6.34,3.8,14.47-.8,17.84-4.6,3.37-7.01,7.73,5,14.87,12.01,7.14,19.39,10.56,17.01-2.97s-14.61-12.09-13.21-21.8c1.4-9.71,16.01-31.52,14.21-41.82s-15.81-9.51-16.21-33.5c-.4-23.98,7.81-37.26,6.2-37.86s-11.01,12.88-10.81,30.13c.2,17.24,7.01,40.63,11.81,38.26,4.8-2.38-21.42-31.52,3.4-76.51,24.82-44.99,59.25-26.16,67.26-26.56,8.01-.4,30.83-6.74,38.43-6.14s18.62,11.5,56.05,7.73c37.43-3.77,54.45-10.51,64.25-10.51s15.21,6.54,31.43,6.94,22.02-.79,34.03,7.14c12.01,7.93,17.21,23.19,28.02,24.58,10.81,1.39,25.22-9.32,29.02-15.06,3.8-5.75,1,10.31-4,16.45-5,6.14-9.61,14.67-21.42,14.67s-17.65-5.35-3.6-12.29c14.04-6.94,20.02,20.22,23.42,26.36s10.01,15.26,22.22,14.67c12.21-.59,19.22-6.54,20.02-5.35s-1.6,17.05-10.41,16.65c-8.81-.4-19.42-5.75-8.81-.4,10.61,5.35,20.71,5.06,29.13,1.62,8.42-3.43,14.62-13.98,15.36-8.95s-.25,22.93-11.64,31.4c-11.39,8.46-10.03,8.95-11.27,18.39-1.24,9.44-5.82,13.98-12.01,14.23-6.19,.25-12.51-2.08-13.38,.12s-2.6,3.92-7.31,.61c-4.71-3.31-12.63-7.85-18.45-7.85s.62-11.04,4.58-15.21c3.96-4.17,11.64-8.95,17.21-9.08,5.57-.12,15.73,15.33,18.45,18.64,2.72,3.31,6.07,4.66,6.32,1.84s-3.1-5.64-11.39-1.72-19.13,4.21-28.24,3.07c-9.11-1.15-18.08-4.66-25.51-12.39-7.43-7.73-13.87-16.19-16.97-12.02-3.1,4.17-5.82,11.53-11.02,11.53s-10.28-14.47-10.65-19.13,1.24-25.63-5.82-40.47-16.1-32.38-7.56-21.71c8.55,10.67,14.74,23.55,15.36,36.3s-2.48,29.19-5.7,35.57c-3.22,6.38-7.43,11.9-8.42,6.5s-4.21-21.46-7.43-21.46-9.99,16.27-10.74,37.9,2.26,48.67,32.77,55.2c30.51,6.53,59.82,8.24,90.15,1.79,30.33-6.45,69.72-13.8,98.75-14.07,24.51-.24,46.85,3.03,49.08,2.59s-3.6-8.04-9.23-28.16c-5.63-20.12,.17-26.03,2.4-30.11,4.72-8.64,18.1-19.41,18.1-26.5s-13.24-2.46-12.91,6.15,6.29,11.06,11.78,12.98c7.34,2.56,10.61-6.85,13.18-6.49,1.61,.22-1.14,8.55,.81,9.04s9.94-7.26,14.83-11.3c4.89-4.04,11.57-.64,11.24,.65s-6.52-.65-10.27,6.13c-3.75,6.78-1.47,6.78,13.36,4.85s21.02-15.01,25.91-32.27c4.89-17.27,1.79-45.83-11.09-59.71-12.88-13.88-12.06-18.88-10.76-25.5s8.8-3.39,18.9-4.36c10.1-.97,.33-3.23-6.36-6.29-6.68-3.07-6.68-6.45-8.15-10s-9.29-2.58-10.59,3.71c-1.3,6.29,7.99,6.94,8.15,.81,.16-6.13-4.73-6.94-6.84-7.1s-11.09,.16-13.04,14.52c-1.95,14.36,9.61,24.04,13.85,30.34s22.81,27.59,9.76,43.89c-13.05,16.3-5.03,29.21-.31,12.59,4.72-16.62-45.79-28.88-73.98-20.98-28.19,7.91-36.5,28.72-40.58,44.54-4.07,15.81,1.14,35.82,3.75,35.5s7.99-16.78,9.61-16.78-1.3,6.94,.65,7.75,7.17-6.62,9.61-9.68,3.26,1.29,6.03,2.26,2.28-3.71,2.77-5,4.24,4.2,7.33,4.03c3.1-.16,7.43-7.49,4.01-7.49s-5.26,17.06-1.19,29.18c2.4,7.12,10.99,32.24,13.52,38.85s3.66,12.77,11.29,13.79c4.58,.61,22.83,1.2,22.83,4.43s-9.2-.15-9.2,1.62,5.78,4.55,3.26,6.17c-2.52,1.62-13.2-.28-20.25-16.66-6.58-15.32-13.35-47.61-12.22-49.2s12.38-5.41,13.02-9.23,.48-8.12-1.45-6.85-11.09,14.01-5.95,18.47c5.15,4.46,19.62,15.6,29.26,20.54,9.65,4.94,9.16,5.41,10.29,11.46s3.38,11.3,10.93,14.33c7.56,3.03,4.5-4.3,1.13-9.87s-8.64-14.81-18.28-23.73-14.2-12.57-17.25-14.32c-3.06-1.75-4.98-1.11-5.15-2.39s4.66-4.46,10.13-7.96,10.29-5.41,6.11-7.32c-4.18-1.91-12.24,12.2-13.18,14.33s-.16,4.62,4.18,7.96c4.34,3.34,18.33,15.76,24.28,23.41,5.95,7.64,10.13,20.7,18.01,21.18,7.88,.48,31.04,1.95,43.41,2.39,19.5,.69,70.25,.87,76.5,.89,9.19,.03,19.16,.99,17.94,3.88s-19.2,7.9-13.9-9.88c.57-1.93,6.29-23.72,9.46-27.18,4.84-5.29,18.07-8.57,12.98-19.15-5.09-10.58-25.45-36.54,.76-55.45,26.21-18.9,63.12,13.11,66.17,37.8,3.05,24.7,4.84,54.19,14.25,56.96,9.42,2.77,31.81,3.02,9.16,8.32-22.65,5.29-26.72,12.86-36.14,0-9.42-12.86-14-24.95-14-38.06s4.58-15.88-14.51-18.9c-19.09-3.02-43.27-13.36-36.14-41.83,7.13-28.48,38.94-31.25,48.87-34.02s22.91-8.82,35.63-25.71c12.73-16.89,46.83-26.21,61.85-28.98,15.02-2.77,26.21-5.04,24.94-2.52-2.6,5.26-2.22,11.48,1.02,16.38,4.58,7.31,10.44,19.15,6.36,26.46s-7.71,9.15-7.8,2.88c-.09-6.28-7.73-3.44-8.6,1.81s-.61,6.45,.61,4.13,10.16-4.9,9.81,11.01c-.35,15.91-10.94,15.99-16.15,15.91s-19.88-5.5-19.8-23.9c.09-18.4,14.5-28.46,19.54-28.37,5.04,.09,5.12,9.46-2.6,9.29-7.73-.17-15.02-.86-17.45,8.68-2.43,9.54-3.39,25.79,9.38,32.85,12.76,7.05,16.98,1.03,14.74,9.85-1.47,5.81-2.29,21.68,8.4,29.24,10.69,7.56,26.21,18.9,32.32,29.99,6,10.42,12.81,20.36,20.36,29.74,3.31,3.78,8.65,9.07,0,16.13-8.65,7.06-9.16,8.32-14-2.27s-10.69-19.91-32.58-28.48c-21.89-8.57-38.69-21.42-38.94-45.11s4.58-44.86,7.13-15.63-2.82,41.08-7.14,53.68c-4.32,12.6-10.17,22.68-4.06,30.75s15.6,17.64-2.63,17.39c-18.24-.25-16.45-5.29-16.45-22.43s-4.84-31-4.84-40.07,6.11-29.49,6.11-40.07-7.89-23.44-11.2-32.76c-3.31-9.32-5.35-18.39,4.84-2.27,10.18,16.13-3.29,36.29-13.21,43.34-9.93,7.06-17.58,12.86-35.4,9.58-17.82-3.28-20.62,23.44-23.16,34.28s-9.93,21.17-13.23,25.2-12.98,14.37-5.6,16.63c7.38,2.27,29.01,7.32,8.4,8.57-8.04,.49-15.54,.72-21.7,1.05-3.21,.17-4.56-3.65,6.85-2.82,11.41,.83,18.26,4.41,24.3,2.82,6.05-1.59,5.95-5.05-4.62-8.7-10.57-3.65-20.52-.26-13.65-13.38s14.43-17.62,17.44-34.39,8.89-31.71,20.46-31.55c11.58,.16,21.99,8.57,40.73-3.52,18.74-12.09,19.17-31.97,20.85-17.98s-6.48,32.97-4.88,47.62c1.6,14.66,6.82,27.59,6.48,38.41-.34,10.82-6.33,18.12,11.47,17.89,17.8-.23,13.2-6.67,9.51-12.85s-7.6-6.94,.96-27.54c8.55-20.6,2.16-22.34,12.1-14.1,9.94,8.24,45.53,22.66,51.54,31.81s9.49,17.65,25.54,17.76c8.94,.06,32.55,0,50.78,0s71.99-10.58,126.76-6.86c54.77,3.72,79.92,7.49,94.57,7.02,14.65-.47,20.02,.66,15.46-6.11s-13.02-15.96-19.04-35.78-8.14-24.5-2.6-24.18c5.53,.32,11.39,5.8-14,3.71-25.39-2.09-41.5-9.67-52.73-17.25-11.23-7.58-32.88-18.21,5.05-24.98,37.92-6.77,60.38,6.61,66.57,26.59,6.19,19.99,3.25,39.16,20.67,42.23,17.42,3.07,48.34,8.22,53.87,15.79s8.79,9.51,11.88,9.03-.49-12.57-6.67-16.92-24.58-10.15-34.02-13.38c-9.44-3.22-17.58-7.42-22.79-6.61-5.21,.81-10.74,6.28-2.28,4.83,8.46-1.45,16.93-19.5,16.93-34.33s-9.93-29.49-35.97-30.46c-26.04-.97-26.04,3.87,2.12,4.03,18.93,.1,37.84,1.23,56.64,3.38,9.28,.97,17.09,4.03,18.88,.32s8.3-6.28,5.21-9.19c-3.09-2.9-21.32,6.77-17.58,7.09s13.67,1.13,18.23,7.25c4.56,6.12,6.35,4.67,5.05,9.67s.33,7.74,2.12,9.19,2.6,3.39,.98,4.51-10.25,6.12-11.56,5.32-2.77-3.07-7.49-2.74c-4.72,.33-14.48,3.55-14.65,2.26s6.84-4.03-2.6-9.83c-9.44-5.8-23.11-13.05-32.55-16.44-9.44-3.38-19.69-6.61-18.72-5s2.93,19.66-14.16,25.63-29.13,1.45-41.18-5c-12.04-6.45-33.53-14.02-42.32-14.34-8.79-.32-17.9,1.77-21,3.71s2.77-6.77,18.72-7.58c15.95-.81,17.42,5,33.37-.48s18.56-9.19-4.88-17.41c-23.44-8.22-46.71,.64-65.43,12.73-18.72,12.09-36.62,25.63-49.97,27.72s-27.83-2.74-28.48-14.51c-.65-11.76,8.46-8.54,8.95-4.03,.49,4.51-.65,10.64,13.02,10.64s36.45-18.21,46.87-24.5c10.42-6.29,32.23-19.12,25.88-11.25-6.35,7.87-14.81,22.05-16.11,29.79s0,7.42,4.07,4.35-4.72,10.15-11.07,14.34c-6.35,4.19-19.37,8.86-23.93,3.55-4.56-5.32-7,1.13-10.09,10.8-3.09,9.67-20.34,33.04-18.88,34.49,1.47,1.45,9.77,4.03,15.79-4.35,6.02-8.38,15.14-31.91,13.35-34.49s-9.93,9.35-21.97,16.92c-12.04,7.57-14.32,12.57-13.83,14.51s7.39,9,20.51-5.8c13.12-14.8,13.67-19.98,16.76-15.47s11.72,10.48,31.25,5.32c19.53-5.16,37.76-15.79,36.13-24.01s-16.93,3.71-16.28,4.03,16.93-6.12,29.62-8.38,31.41-3.22,51.27-2.26,25.55,6.28,44.27,7.25c18.72,.97,39.55,1.29,38.25-3.71-1.3-4.99-16.76,1.93-27.18,7.25-10.42,5.32-10.94,9.64-10.42,13.54s.98,20.15,4.07,30.3c3.09,10.15,3.42,9.19,8.14,11.28,4.72,2.09,9.11,4.03,9.11,6.29s-9.93,4.83-9.93,2.26,29.13-2.1,48.5-.48c19.37,1.61,59.57-1.93,59.57-1.93"></path>
</svg>