<svg version="1.1" class="bg-pattern" xmlns="http://www.w3.org/2000/svg" xmlns:xlink="http://www.w3.org/1999/xlink" viewBox="0 0 1610 1050" xml:space="preserve">
  <style type="text/css">
    .ptrn-ptch{fill-rule:evenodd;clip-rule:evenodd;}
  </style>
  <defs>
    <linearGradient id="fadeGrad" y2="1" x2="0">
      <stop offset="0" stop-color="white" stop-opacity="0"/>
      <stop offset=".25" stop-color="white" stop-opacity="1"/>
    </linearGradient>

    <mask id="fade" maskContentUnits="objectBoundingBox">
      <rect width="1" height="1" fill="url(#fadeGrad)"/>
    </mask>
  </defs>
  <g transform="translate(13.499 34.27)" mask="url(#fade)">
    <path class="ptrn-ptch" d="M325.1,292.7c3.7-14.1,7.1-28.3,11.3-42.2c4.2-14,15.2-19.6,28.8-20.5c9.4-0.6,19.1,1,28.3-0.5 c22-3.6,44.5-6.5,65.6-13.2c27.9-8.9,51.9-6.6,73.1,14.3c17.4,17.1,35,33.9,52,51.4c6.8,7,6.9,16.5,2.1,24.8 c-21.3,36-43.5,71.5-63.8,108c-15.9,28.7-40.2,37.2-70.6,34.8c-12.6-1-25.9-1-34.5-12.2c-4.1-5.3-6.8-11.8-8.9-18.2 c-4.2-12.8-5.9-26.6-11.5-38.7c-7.3-16-21.9-26.2-35.6-36.7c-9.3-7.2-18.8-14.3-27.5-22.2C325.5,314,327.4,303.2,325.1,292.7z"/>
    <path class="ptrn-ptch" d="M1383,225.8c27.1,2.6,52.2-6.1,77.8-12.7c7.5-1.9,15.1-3.3,22.8-4.2 c20.8-2.4,34.6,10.4,47.7,23.3c13.9,13.7,27,28.2,40.2,42.6c10.7,11.6,11.3,21.5,2.6,34.7c-19.1,29.3-38.2,58.6-57.3,88 c-4.5,7-9.2,13.8-13.3,21c-7.8,13.6-20,22.6-34.7,24.7c-16.4,2.4-33.1,2.5-49.5,0.2c-15-2.2-23.2-13.4-25.8-29.5 c-2.3-14.9-5.7-30.1-12.1-43.6c-4.7-9.9-14.5-17.5-22.9-25.4c-9.8-9.2-20.7-17.2-30.6-26.4c-3-2.8-5.1-7.6-5.6-11.8 c-2.9-20.9,3.1-40.5,11-59.5c7.7-18.6,23.8-22.4,41.9-22C1377.8,225.4,1380.4,225.6,1383,225.8z"/>
    <path class="ptrn-ptch" d="M601,687.5c-1.7,11-3.5,22.1-5.1,33.1c-2.4,15.9-5.3,31.8-7,47.7c-1.5,14.5-1.7,29.2-2.6,43.9 c-0.2,3.7-0.7,7.4-1.6,11c-4.8,17.6-15.9,24.6-32.4,17.1c-24.1-11.2-47.6-23.7-70.5-37.5c-14.5-8.6-28-19.2-40.8-30.3 c-13.1-11.3-28.1-17.7-44.3-22c-15.5-4.1-20.6-8.6-21.1-24.7c-0.1-10.3,0.7-20.6,2.6-30.8c2.8-16.8,18.1-21,30.3-28 c23.9-13.7,48.1-26.8,71.8-40.8c14.4-8.5,28.7-10.1,43.4-2.5c20.1,10.4,39.7,21.9,59.7,32.4C596.5,663,601.7,673.2,601,687.5z"/>
    <path class="ptrn-ptch" d="M1473.2,610.9c17.1,0.9,29.7,10.4,42.9,17.5c11.4,6.1,22.2,13.3,33.2,20 c17.1,10.5,20.6,19.5,15.9,39.8c-7.5,32.4-15.1,64.8-22.4,97.3c-1.7,7.5-1.7,15.4-3.1,23c-4.2,22.4-19.5,30.9-40.7,22.3 c-30.1-12.3-56.4-30.9-81.7-50.8c-7.6-6-14.7-12.8-21.8-19.5c-11.5-11-26.2-15.1-40.8-19.4c-11.7-3.4-15.6-6.8-16.2-19 c-0.8-16.8,1.1-33.5,12.4-47.2c3.5-4.1,7.8-7.4,12.5-9.9c28.1-14.9,56.4-29.7,84.7-44.1C1456.1,616.9,1464.8,614.2,1473.2,610.9z" />
    <path class="ptrn-ptch" d="M1095.1,932.9c-29.5,2-59,4-88.5,6.1c-10.8,0.8-21.7,1.4-32.5,2.8c-22.5,2.9-35-9.1-31.5-31.7 c2.3-14.7,6.8-29.1,9.5-43.8c2.6-14.1,4.5-28.4,6.2-42.6c1.5-12.1,12.5-24.7,24.6-26.7c17.1-2.9,31.5-10.2,42.5-24 c4-4.9,8.4-9.5,13.2-13.6c12.2-10.7,22.1-11.1,34.6-0.6c19.4,16.3,34.3,36.2,46.1,58.6c9.8,18.5,20.1,36.8,29,55.8 c5.8,12.4,10.5,25.3,13.8,38.6c2.6,10.4-0.6,15.4-11.6,17.4c-16.3,2.9-32.9,3.6-49.4,5.1c-2,0-4-0.1-6-0.4 C1095.2,933.5,1095.1,933.2,1095.1,932.9z"/>
    <path class="ptrn-ptch" d="M590.8,239.2c-8.4-0.2-14.4-3.1-18.2-11.5c-7.2-15.8-19-27.5-35.5-33.3 c-11.5-4-17.7-12.4-21.8-22.8c-10-25.2-20.6-50.1-39.8-70c-9.2-9.5-18.5-18.8-27.5-28.5c-3.3-3.6-6-7.6-8.3-12 c-2.8-5.2-1.9-10,3.4-13.5c27.8-18.1,45.7-45.1,63.1-72c8.7-13.4,14.9-11.4,25.2-4.1c11.6,8.3,22.1,18.1,31,29.3 C578,20.5,592,41.6,606.8,62c2.8,3.9,7.1,6.8,9.6,10.9c2.5,4.1,5.5,9.5,4.8,13.7c-4.3,24.9-7.5,49.6-6.2,75.1 c1,19.4-1.8,38.9-3.2,58.4C610.9,232.3,603,239.2,590.8,239.2z"/>
    <path class="ptrn-ptch" d="M809.5,681.5c4.2,0.7,8.5,1.1,12.6,2.2c15.4,4.1,29.1,0.6,42.8-7.2 c16.4-9.4,33.1-18.6,50.5-25.5c20.8-8.3,32.9,0.3,38.2,22c2,8.2,7.7,15.8,12.5,23.1c7.7,11.7,16.4,22.7,23.9,34.5 c4.1,6.5,1.8,13.2-3.1,19c-14.7,17.6-28.5,36.2-44.2,52.8c-27,28.6-54,33.7-91.2,11.7c-22.2-13.1-44.7-25.8-68.2-36.4 c-27-12.2-36.9-38.8-22-64.5C772.3,694.6,786.5,681.9,809.5,681.5z"/>
    <path class="ptrn-ptch" d="M786.3,351.2c-0.9,20.6-5.8,25.4-25.5,33c-11.4,4.4-22.3,10.3-32.8,16.6 c-11.2,6.7-16.7,17.5-18.7,30.4c-3,19.6-11.8,36.7-25.1,51.1c-3.5,3.8-12,6.2-17,4.8c-19.6-5.3-38.9-11.8-57.7-19.4 c-11.5-4.8-22.1-12.1-32.1-19.6c-17.3-13-20.1-27-7.7-44.7c11.6-16.7,25.1-32.1,37.7-48.1c0.4-0.4,0.8-0.8,1.1-1.3 c13.2-26.5,37.2-36,64.1-42.6c26.4-6.4,52.9-10.7,80-10.4c24.5,0.3,26.7,2.2,30.8,25.9C784.9,335.9,785.6,345.1,786.3,351.2z"/>
    <path class="ptrn-ptch" d="M387,971.3c-20.2-1.4-35.2-7.6-47.5-19.2c-17-16-37.2-26.7-57.3-37.9c-9.8-5.3-19-11.7-27.5-19 c-3.5-3.1-6.3-10.9-4.8-14.8c1.5-4,8.2-7.2,13.3-8.6c10.1-2.8,20.9-3.5,31-6.4c18.9-5.4,32.2-18.4,43-34.2 c6.8-10,12.9-20.4,19.8-30.3c8-11.6,17.8-14.4,30.7-9.4c25.4,9.9,50.8,19.6,76.2,29.7c13.8,5.4,25.6,14.7,34.1,26.8 c7.6,10.6,5.7,22.5-5.2,30c-10.4,7.2-21.8,12.9-31.9,20.3c-7.5,5.7-14.3,12.1-20.4,19.3c-13,14.9-24.9,30.7-38.3,45.2 C397.8,967.5,390.5,969.4,387,971.3z"/>
    <path class="ptrn-ptch" d="M410.3,494.5c-1.9,4.4-3.3,11-7,15.6c-18,22.4-41.6,36.5-69.5,43.2 c-10.7,2.6-19.7-1.8-25.4-10.6c-7.1-11-11.7-23.7-19.3-34.4c-9.9-13.7-20.6-26.7-32.1-39.1c-14.5-15.9-30.6-30.3-44.7-46.5 c-14.2-16.3-9.2-30.2,11.3-37.1c19.3-6.5,38.6-13,57.5-20.5c7.8-3.1,14.9-8.5,21.9-13.4c12.9-9.1,19.6-8.6,29.3,3.3 c15.4,19,31.8,37.2,45.9,57.1C395.4,436.2,405.2,463.5,410.3,494.5z"/>
    <path class="ptrn-ptch" d="M199.2,901.5c-1.9,4.4-3.3,11-7,15.6c-18,22.4-41.6,36.5-69.5,43.2 c-10.7,2.6-19.7-1.8-25.4-10.6c-7.1-11-11.7-23.7-19.3-34.4c-9.9-13.7-20.6-26.7-32.1-39.1C31.5,860.4,15.4,846,1.3,829.8 C-13,813.5-8,799.6,12.6,792.7c19.3-6.5,38.6-13,57.5-20.5c7.8-3.1,14.9-8.5,21.9-13.4c12.9-9.1,19.6-8.6,29.3,3.3 c15.4,19,31.8,37.2,45.9,57.1C184.3,843.2,194.1,870.5,199.2,901.5z"/>
    <path class="ptrn-ptch" d="M1323.9,958.4c-17.4-2.1-30.6-5-40.5-14.4c-20.1-18.9-43.6-32.6-67.2-46.4 c-6.8-4-13.5-9.1-18.3-15.1c-7.4-9.3-3.8-18.7,7.8-21.6c8.9-2.2,18.2-2.4,27.1-4.3c26.4-5.6,45.9-21.3,61.6-42.7 c6.3-8.6,12.4-17.3,19.2-25.5c8.5-10.2,17.8-12.2,30.1-7.2c23.4,9.5,46.9,18.7,70.1,28.7c16.2,6.9,30.5,16.4,35.6,34.9 c2.6,9.5,0.3,16.3-8.1,21.4c-10.8,6.5-22.5,11.7-32.8,18.9c-10,7-19.4,14.9-28,23.6c-12.4,12.3-23.4,26.1-36.2,38 C1337.8,952.5,1328.8,955.6,1323.9,958.4z"/>
    <path class="ptrn-ptch" d="M1391.8,481.3c1.9,12.4-4.1,21.9-12,29.4c-19.8,19-42.9,32.4-70.2,37.7c-8,1.6-14.5-1-19.1-6.9 c-4.5-5.8-9.1-12.2-11.3-19.1c-8.6-26.8-24.4-48.3-44.3-67.7c-13.5-13.2-26.9-26.7-35.6-44c-6.6-13.2-4.9-22.4,8.7-28.2 c14.2-6,29.5-9.2,43.8-14.9c13.3-5.2,26.1-11.4,38.5-18.4c25.6-14.7,23.5-13,39.2,7.2c12.3,15.8,24.5,31.8,36,48.3 c12,17.2,18.2,36.9,22.8,57.2C1389.6,468.4,1390.6,474.9,1391.8,481.3z"/>
    <path class="ptrn-ptch" d="M1007.3,35.5c6.7,1.5,13.4,2.9,20.1,4.5c33,7.9,66.4,8.7,100,4.9c14.5-1.6,29.1-3.5,43.6-3.7 c12.2-0.1,16.5,6.4,14.2,18.1c-3.5,17.8-9.4,34.8-23.7,46.5c-9.3,7.6-20.4,13.5-31.3,18.6c-8.5,3.9-17.9,6.3-27.2,8 c-20.6,3.7-35.8,15.2-49.2,30.7c-8.5,9.9-18.4,19.3-29.4,26c-17.5,10.7-27.9,14.7-44.8-3.4c-7.4-8-15-15.9-22.2-24 c-4.8-5.4-9.6-10.8-13.5-16.7c-7.1-10.7-9.7-22.3-1.9-33.9c4.9-7.4,10.4-14.3,15.7-21.5c10.9-14.7,22.1-29.1,32.6-44.2 C994.5,39.1,999.5,35.7,1007.3,35.5z"/>
    <path class="ptrn-ptch" d="M1051.3,613.6c19.2-1.1,38.5-1.2,57.5-3.8c14.5-2,28.1,0.1,41.6,4.3 c14.2,4.4,28.3,9.3,42.4,14.2c14.6,5.2,22.5,21.1,16.5,37.2c-3.9,10.2-9.6,19.5-17,27.4c-15.2,16.4-32.1,30.9-43.1,51.1 c-9.4,17.3-26.7,20.1-44.6,8.7c-14-9-26.6-20-40.5-29.2c-6.8-4.5-14.7-7.4-22.4-10.3c-15-5.7-30.3-10.4-45.1-16.5 c-10.3-4.3-15.2-13.6-17.4-24.2c-5.6-27.1,13.2-56,40.3-60.4c10.3-1.7,21.1-0.3,31.7-0.3C1051.3,612.4,1051.3,613,1051.3,613.6z"/>
    <path class="ptrn-ptch" d="M621.2,578.3c-1,11.6-1.7,21.7-2.9,31.6c-0.5,4.3-1.5,8.5-3.1,12.5c-3.9,9.6-8.7,12.1-18.1,7.8 c-14.9-6.7-29.2-14.6-44-21.6c-28.3-13.4-58.8-21.7-90.1-24.3c-15.4-1.3-30.6-4.7-45.9-7.2c-2-0.4-3.9-1-5.8-1.7 c-16.3-6.4-18.7-14.2-8.1-28c16.5-21.3,36.9-38.4,59.3-53.1c12.9-8.5,26-16.8,39.6-24.3c13.4-7.4,27.4-9.4,42-2.3 c20.4,9.9,41,19.3,58.1,34.8c10.7,9.7,17,21.2,16.9,36.2C619.3,552.3,620.5,566.1,621.2,578.3z"/>
    <path class="ptrn-ptch" d="M1596.5,540c-1.8,21.3-2.8,38.2-4.9,55.1c-1,7.9-3.6,15.7-6.5,23.1c-3.5,8.9-9.2,11.1-17.9,7.5 c-7.9-3.4-15.6-7.3-23-11.6c-36.1-20.6-76.1-33.1-117.5-36.9c-12.9-1.3-25.6-3.6-38.1-6.9c-18.1-4.7-20.6-14.4-8.8-28.6 c23.5-28.5,54-47.8,85.3-66.1c5.5-3.2,11-6.3,16.5-9.3c18-9.7,35.7-9.2,53.2,1.5c11.5,7.1,23.7,13.2,34.3,21.4 c8.6,6.7,17.4,14.8,22.3,24.3C1595.9,522.3,1595.4,533.7,1596.5,540z"/>
    <path class="ptrn-ptch" d="M842.4,299.5c-29.7,1.7-45.7-23.1-37.9-47.4c4.4-13.8-0.3-27.2-5.2-40.3 c-6.7-17.7-9.4-36-9-54.9c0.2-9.1,4.2-15.2,13.4-17.7c13.4-3.6,23.3-12.1,31.4-22.9c5-6.6,10.3-9.1,18.4-5.1 c7.9,3.9,17.1,5.5,24.6,10.1c7.8,4.8,16.7,10.6,20.7,18.3c11.1,21.1,26.5,37.1,46.5,49.6c9.2,5.7,17.8,12.4,25.6,20 c7.6,7.4,5.8,14.5-3.3,19.3c-3.5,2-7.2,3.4-11.1,4.3c-22,3.8-38.6,16.4-53.8,31.8c-8.5,8.5-17.5,16.6-26.9,24.1 C866.4,296.4,854.5,300.3,842.4,299.5z"/>
    <path class="ptrn-ptch" d="M1258.8,580.3c2.1,32.6-21.6,38.8-47.7,34.3c-43.8-7.5-82.9-27.8-120.7-50.3 c-6.2-3.7-11.4-9.6-16-15.4c-7.1-9-7.2-20,0.4-28.4c19.1-21,37.5-43,58.9-61.5c25.7-22.2,32.3-18.9,58.7,1.1 c24.3,18.5,44,42.5,57.5,70c7.3,14.8,7.7,33.1,11.1,49.8C1260.3,579.9,1259.5,580.1,1258.8,580.3z"/>
    <path class="ptrn-ptch" d="M1249.5,997c1.1,17.1-11.3,20.4-25,18c-23-4-43.6-14.6-63.4-26.4c-3.3-1.9-6-5.1-8.4-8.1 c-3.7-4.7-3.8-10.5,0.2-14.9c10.1-11,19.7-22.6,30.9-32.3c13.5-11.7,17-9.9,30.8,0.6c12.8,9.7,23.1,22.3,30.2,36.8 c3.8,7.8,4,17.4,5.9,26.2C1250.3,996.9,1249.9,996.9,1249.5,997z"/>
    <path class="ptrn-ptch" d="M1061,479.1c-6.4-2.7-14.7-5-21.6-9.5c-13-8.4-24.9-18.5-37.8-26.9 c-7.5-4.9-10.7-11.2-10.1-19.4c1.6-22.8,11.3-42.7,24.5-60.7c3.7-5.1,10.3-8.2,15.9-11.6c21.4-13.3,35.4-34.2,53.2-51.3 c5.1-4.9,10.7-9.9,17-12.7c3.9-1.7,11.4-1.1,14.2,1.7c14.7,14.4,29.4,29.1,42.3,45.2c15.4,19.2,14.4,40.4-0.3,59.5 c-16.3,21.1-33.9,41.1-51.8,60.8c-7,7.7-15.9,14-24.8,19.5C1076.4,476.8,1069.5,477,1061,479.1z"/>
    <path class="ptrn-ptch" d="M246.1,623c-30.8-1.4-58.1-13.5-85.3-26.2c-14.3-6.7-28.8-13.1-42.3-21.1 c-24.1-14.4-29.2-34.7-12.9-57.2c14.2-19.5,29.8-37.8,46.8-54.9c13.8-13.9,23.7-13.7,40.2-3.1c32.9,21,59.8,48.4,79.2,82.2 c10.2,17.8,10.4,38.7,10,58.9c-0.2,9.5-6.8,16.8-16.1,18.9C259.3,621.8,252.6,622.1,246.1,623z"/>
    <path class="ptrn-ptch" d="M837,406.7c35,1.1,69.9,2.2,104.9,3.1c12.9,0.3,20.9,4.9,24.1,17.7c4.9,18.9,4.6,37.6-8,54.1 c-5.1,6.7-11.7,10.2-20.3,11.4c-21.3,2.9-40.7,11.7-59.2,22.4c-12.9,7.4-24.9,16.3-37.4,24.4c-4.2,2.9-8.7,5.5-13.4,7.6 c-20,8.4-37.3-2-39.5-23.7c-1-9.1-0.3-18.5-2.4-27.3c-2.6-10.8-6.9-21.3-11.3-31.5c-9.8-22.3-1.7-56.8,34.2-59 c9.4-0.6,18.9-0.9,28.3-1.3C837,405.4,837,406.1,837,406.7z"/>
    <path class="ptrn-ptch" d="M713.3,495.5c8.1,0.3,16.1,3.8,19.2,12.9c6.2,18.3,21.1,29.5,32.7,43.5 c15.3,18.5,30.1,37.7,42.6,58.1c6,9.7,6.8,22.8,9,34.6c1.3,6.5-2.2,13.1-8.4,15.6c-7,3.1-14.4,6.2-21.9,7 c-24.2,2.7-47.1,9.6-69.7,18.1c-10.7,4-19.6,0.5-26-13.2c-7.8-16.6-15.4-33.5-20.2-51.1c-4.7-17.3-5.7-35.6-8.4-53.4 c-0.3-2.8-1.1-5.6-2.4-8.1c-10.5-18.6-6.7-34.8,10.5-48.1C682.7,501.7,696.2,495.8,713.3,495.5z"/>
    <path class="ptrn-ptch" d="M645.5,169.6c-0.8-6.3-2.6-18.8-3.7-31.4c-2-21.2,7.6-30,28.6-26.7c16.4,2.6,32.8,5.9,49.3,8.1 c8.8,1.2,17.7,0.7,26.6,0.9c9.5,0.2,13,3.8,12.3,13.4c-2.1,29,1.6,57.1,10,85c5.2,17.1,0.5,33.7-12.1,46.1 c-4.9,4.8-13.8,6.4-21.2,7.4c-6.3,0.9-13.3-0.3-19.6-2c-21.2-5.8-40.4,0.1-58.7,10.1c-8.5,4.9-18.5,6.6-28.1,4.7 c-9.8-1.9-14.6-7.7-11.9-17.1c3.4-11.7,7.3-23.8,13.5-34.2C641.2,215.6,645.1,196.4,645.5,169.6z"/>
    <path class="ptrn-ptch" d="M953.1,382c-6.2-0.9-12.5-1.8-18.7-2.8c-23.9-4.2-47.4-0.8-71,3.1c-19.3,3.2-26.5-1.2-31.4-19.9 c-2-7.8-3-15.8-3-23.8c0.2-13.5,5.5-20.1,18.6-23.4c8.9-2.1,18-3.7,27.1-4.8c17.1-2.3,29.7-11.4,41.9-23.4 c14.8-14.4,30.7-27.6,47.5-39.6c16.9-12.1,33.1-7.5,46.5,4.3c7.9,7,13.2,17.1,18.6,26.4c1.9,3.3,1.9,8.6,0.8,12.5 c-7.7,26.4-21,50.3-36.5,72.7C983.7,377.6,972.5,381.5,953.1,382z"/>
    <path class="ptrn-ptch" d="M706.5,1007.4c-26.3,1-46.6-11.3-65.8-27.7c-17.6-15.1-36.9-28.2-54.8-43 c-13-10.7-25.9-21.9-37-34.5c-9-10.2-6.6-18.5,5.3-25.6c8.6-5,17.7-9.4,27-13.1c10.5-4.3,19.4-1.3,27,7.2 c11.6,12.9,24.9,23.7,41.6,29.8c20.3,7.4,41.4,8.2,62.7,7.7c14-0.5,28.1-0.1,42.1,1.2c11.9,1.2,15.3,6.4,13.7,18.4 c-0.8,6.2-3,12.2-5.1,18.2c-4.8,14.1-9.8,28.2-14.9,42.2c-4.1,11.5-11.8,17.9-24.5,17.9C717.9,1006,712.2,1006.9,706.5,1007.4z"/>
    <path class="ptrn-ptch" d="M151.7,271.2c-35.4,0.8-56.7-7.6-75-26c-14.3-14.4-31.1-26.4-46.4-39.9 C18,194.5,5.4,183.8-5.5,171.7c-12.1-13.5-10.5-22.4,5-31.3c10.1-5.8,21.2-10.1,32.2-14.2c7.7-2.9,14.8-0.2,19.9,6.5 c22,29,52.2,40.3,87.4,40.4c12.6,0,25.3-1.4,37.9-1.5c6.3-0.1,12.6,0.6,18.7,2.1c8.9,2.2,12.2,7.6,9.3,16.2 c-5.9,17.4-12.8,34.4-19.3,51.6c-1.3,3.8-2.9,7.5-4.7,11C172.7,267.4,165.8,270.5,151.7,271.2z"/>
    <path class="ptrn-ptch" d="M842.7,613.2c1.8-11.9,3.4-23.8,5.6-35.7c1.9-10.3,7.8-17.8,17.4-22.2 c17.9-8.4,35.7-17.1,53.9-24.9c19.8-8.4,39.5-17.2,56.4-30.8c9.3-7.5,18.8-5.7,27.3-0.6c21.7,13.2,36.2,32.4,42.1,57.4 c2.1,8.9-0.9,13.2-9.8,14c-16.9,1.5-32.8,6-47,15.1c-6.9,4.4-14.7,9.3-18.6,16.1c-12.4,21.5-32.3,28.9-54.7,32.7 c-17.5,2.9-35.1,5.8-52.6,8.9c-13.1,2.3-17-0.3-18.4-13.5c-0.6-5.4-0.1-10.9-0.1-16.3L842.7,613.2z"/>
    <path class="ptrn-ptch" d="M1345.5,87.8c-2.3,17.3-3,35-7.3,51.8c-2.8,10.8-9.7,21.3-17,30.2c-7.6,9.4-20.6,9.8-30.8,4.1 c-24-13.5-48-27-72.1-40.2c-15.9-8.8-22.3-21.4-15.1-38c10.5-24.2,22.3-47.9,35.2-71c8.8-15.9,25.7-22,37.8-15.2 c6.8,3.9,12,10.5,18.3,15.5c9.5,7.4,18.8,15.3,29.1,21.4C1339.9,55.7,1347.2,69,1345.5,87.8z"/>
    <path class="ptrn-ptch" d="M338.6,93.8c-2.2,18.8-3.4,37.4-6.9,55.6c-1.5,7.7-6.9,15.1-12.1,21.4c-9,10.8-20.6,12-35,4.8 c-24.1-12.1-48.2-24.3-72.2-36.6c-14.8-7.5-22-19.5-16.7-34.5c9.9-28.1,19.6-56.6,38.6-80.4c9.1-11.3,24.1-17.5,39-5 c15.7,13.2,33.3,24.2,50.3,35.8C337.8,64.6,337.8,79.4,338.6,93.8z"/>
    <path class="ptrn-ptch" d="M1016.9,227.7c1.3-10.8,7.3-16.6,15-20.5c31.3-15.7,62.9-30.8,94.1-46.6c5.9-3,11.2-6.9,16-11.5 c19.3-18.5,37.2-18.7,56.7-0.8c6.1,5.6,12.8,10.5,19.9,14.8c16.8,10,17.7,15,5.3,31.3c-10.6,14.1-23.8,26.3-36.8,38.3 c-11.3,10.5-23.7,19.8-35.9,29.2c-6.5,5-13.6,5.6-21.7,2c-22.2-9.8-46.2-11-70-12.3c-11.8-0.7-24-0.6-33-9.6 C1022.5,238.1,1020.1,232.5,1016.9,227.7z"/>
    <path class="ptrn-ptch" d="M1183.7,846.9c-16.1,0-24-7.7-27.8-23.2c-3-12.4-8.1-24.4-13.1-36.2c-2.5-5.8-1.9-10.4,2.3-14 c6.5-5.6,13-11.5,20.6-15.3c31-15.9,48.3-43,63.2-72.9c3.4-6.5,8.5-12,14.6-16c8.7-5.6,15.7-2.8,20.9,6.2c5,8.7,9.8,17.5,14.6,26.4 c6.2,11.4,14.5,20.5,26.2,26.5c11.7,6,12.9,13.9,4.1,23.4c-27.3,29.5-57.3,56.5-89.5,80.5C1209.1,840.1,1197.6,846.5,1183.7,846.9z "/>
    <path class="ptrn-ptch" d="M234.9,856.8c-17.7-0.3-25.6-7.5-30.7-22.2c-4.3-12.6-10.3-24.8-16.5-36.6 c-3.3-6.3-2.5-11.5,2.1-15.6c8-7.3,16.5-14.1,25.4-20.3c19.8-13.4,32.3-32.3,41.4-53.9c2.7-6.4,5.2-12.8,8.2-19 c3.6-7.4,9.3-12.2,18.1-12.6c8.2-0.3,11,5.6,14.7,11.2c8.1,12.2,16,24.6,25.2,35.9c4.5,5.6,11.1,10,17.5,13.4 c14.7,7.9,16.8,14,5.5,26.4c-20.9,22.8-42.7,44.9-64.1,67.3c-10.7,11.2-23.1,19.7-38.1,24.1C240.8,855.8,237.9,856.4,234.9,856.8z" />
    <path class="ptrn-ptch" d="M713.8,763.8c-3.5,17.7,5.2,32.5,10.5,48c3.8,11.1,8.1,22.1,11.5,33.3 c3.7,12.3-1.4,21.7-14.2,23.4c-11.8,1.8-23.9,1.8-35.7,0.2c-18.9-2.9-37.9-6.8-56-12.6c-15.7-5-22.3-12.2-16.3-30.7 c3.3-10.1,5.8-20.4,9.1-30.5c7.5-22.7,3.2-46.3,6.3-69.3c1.6-11.1,3.9-22,6.9-32.8c2.4-8.9,7.7-11.3,15.8-6.8 c24,13.3,44.1,31.3,57.6,55.3C712.9,747.7,712.5,756.2,713.8,763.8z"/>
    <path class="ptrn-ptch" d="M1317.1,222.2c-5.9,23-11.6,46-17.9,68.9c-1,3.5-4.5,6.6-7.4,9.3c-20.6,19.3-43.8,35.5-69,48.1 c-13.9,7-16.7,5.9-27.1-5.8c-8.5-9.6-17.2-19-24.9-29.3c-5.7-7.6-4.6-16,2.3-22.7c16.6-16.3,33.1-32.6,50.1-48.4 c9.7-8.9,18.7-18,22.2-31.1c2.6-9.6,9.1-14.3,18.5-13c13.5,1.9,26.9,4.6,40.1,8C1311,208.3,1316.1,213.4,1317.1,222.2z"/>
    <path class="ptrn-ptch" d="M249.6,658.5c-4.6,18.1-9.1,36.3-14.1,54.3c-0.8,2.8-3.5,5.2-5.8,7.3 c-16.2,15.2-34.6,28-54.4,37.9c-11,5.5-13.2,4.7-21.4-4.5c-6.7-7.5-13.6-15-19.7-23.1c-4.5-6-3.6-12.6,1.8-17.9 c13.1-12.8,26.1-25.7,39.5-38.2c7.6-7,14.7-14.2,17.5-24.5c2.1-7.5,7.1-11.3,14.6-10.2c10.7,1.5,21.2,3.6,31.7,6.3 C244.7,647.5,248.7,651.6,249.6,658.5z"/>
    <path class="ptrn-ptch" d="M315,230.7c-3.6,19.7-6.4,39.6-11.2,59c-4,16.2-18.6,24.4-30.6,33.9 c-13.3,10.4-27.5,19.7-41.7,28.7c-14.5,9.2-22.4,9.8-32.8-3.4c-6.5-8.3-14.8-15.2-21.2-23.6c-7.2-9.3-8.2-19.7,0.3-29.1 c12.5-13.8,24.8-28,38.4-40.6c12.3-11.5,24.5-22.4,27.8-40.1c1.2-6.1,5.4-9.6,12-10.6c15.4-2.1,31.2-0.1,45.6,5.8 C310.8,214.2,315.9,220.1,315,230.7z"/>
    <path class="ptrn-ptch" d="M356.7,214.1c-23-0.1-29.6-11.3-18.8-29.4c6.7-11.4,15.1-21.8,21.3-33.4 c4.5-8.2,6.7-17.7,10-26.5c5-13.1,9.4-26.5,15.3-39.1c2.7-5.4,7-9.7,12.4-12.3c4.1-1.9,11.1-1.6,15,0.8 c23.3,14.4,43.8,32.8,60.5,54.5c5.9,7.6,9.9,17.5,11.9,27c2.5,11.8-3.2,21.2-14.3,25.6c-33.9,13.4-67.7,27.2-104.2,32 C362.2,213.7,358.5,213.9,356.7,214.1z"/>
    <path class="ptrn-ptch" d="M1364.1,211.7c-7.5-0.6-13.3-0.6-18.9-1.7c-10-2-14.5-9-10.6-18.4c3.8-9.3,8.9-18,15.2-25.8 c12.8-15.5,19.2-33.7,25.5-52.3c4-11.7,9.3-22.8,15.7-33.4c7.7-12.7,20.4-14.3,31.7-4.2c15.8,14.2,31.5,28.5,45.8,44.1 c7.1,7.8,13.1,18,15.8,28.2c4.4,16.4-2.4,28.4-19.5,34.5c-25.9,9.3-52.4,16.9-78.7,24.7C1378.4,209.8,1370.4,210.6,1364.1,211.7z" />
    <path class="ptrn-ptch" d="M115.1,450.8c-5.8,1.6-10.2,3.3-14.8,4c-8.1,1.3-13.5-2.7-13.2-11c0.3-8.1,1.7-16.1,4.2-23.8 c5.4-15.4,5.1-30.9,4.7-46.8c-0.2-10,0.6-19.9,2.6-29.7c2.3-11.8,11.4-16.6,22.8-12.1c15.9,6.3,31.9,12.7,47.1,20.6 c7.9,4,14.7,9.8,19.9,16.9c7.9,11.2,6.1,22.2-5.1,31.6c-17,14.3-35,27.5-52.7,40.9C125.4,445.3,119.5,448.2,115.1,450.8z"/>
    <path class="ptrn-ptch" d="M765.7,851c-1-12.6-1.8-25.2-3-37.7c-0.9-9.3,4.3-13.7,14-11.3c18,4.4,35.2,11.1,49.9,22.5 c17.8,13.8,38.8,20.9,59,29.9c10.7,4.8,21.1,10.3,31.1,16.5c9.8,6.2,13.9,18.9,10.6,28.4c-4.3,12.2-14.8,19.2-28.1,17.5 c-14.2-1.8-28.3-4.9-42.5-6.8c-11.1-1.4-22.3-1.4-33.4-2.8c-14.8-1.9-29.6-4.1-44.1-7.1c-9.1-1.9-14.1-11-14.4-23.1 c-0.2-8.6,0-17.2,0-25.9C765,851.1,765.4,851.1,765.7,851z"/>
    <path class="ptrn-ptch" d="M872.9,94.9c-18.6,0-37.3,0.5-55.9-0.2c-12.9-0.4-16.4-6-13.7-18.9 c5.3-25.8,20.2-46.1,37.7-64.6c3.2-3.3,10.4-5.6,14.8-4.5c24.8,6,49.1,3.4,73.2-3c6.8-1.8,11.8,0.1,16.4,4.7 c4.9,4.9,10.1,9.4,14.4,14.7c5.5,6.8,4.9,13.6-0.8,20.4c-10.6,12.8-21.1,25.6-32,38.2c-9.3,10.7-22.2,12.2-35.3,12.7 c-6.3,0.3-12.6,0-18.9,0C872.9,94.7,872.9,94.8,872.9,94.9z"/>
    <path class="ptrn-ptch" d="M356.2,564.4c10.5,3.9,21.4,6.9,31.3,11.8c13.7,6.9,27.5,14.2,39.8,23.3 c11.7,8.8,10.8,22.5-1.3,31.2c-12.7,9.2-26.6,16.8-39.5,25.8c-6.7,4.7-12.6,10.7-18.5,16.4c-3.9,3.8-7.1,8.3-11.2,11.9 c-9,8-20.6,11.5-30-2.4c-7.9-11.6-16.6-22.8-23-35.3c-3-5.9-3.4-15-1.3-21.4c7.5-23,23.7-40.3,41.3-56.1 C346.9,567.1,351.6,566.4,356.2,564.4z"/>
    <path class="ptrn-ptch" d="M1271.6,630.7c0.7-15,8.3-25.7,16.1-35.8c7.7-9.9,17.1-18.5,26.1-27.4c8.8-8.7,19.5-11.3,30.9-6 c17.3,8.1,35.4,15.3,51.1,25.9c18,12.1,15.8,29.4-3.4,39.9c-23.5,12.8-46.4,26.1-64.6,46.4c-3.5,3.9-8.8,6.5-13.7,8.6 c-7.1,3.1-13.9,1.7-18.1-5.2c-7.8-12.7-15.2-25.6-22.5-38.6C1272,636,1272.1,632.6,1271.6,630.7z"/>
    <path class="ptrn-ptch" d="M847.5,1010.5c-16.6,0-33.2,0.1-49.9,0c-16.9-0.1-20.3-4.8-16.7-21.2 c4.7-20.8,17.3-36.8,31.5-51.5c3.6-3.7,11.8-5.5,17.2-4.5c19.8,3.7,40.1,3,59.7-1.9c15.8-3.9,31.1,3.6,38.8,17.8 c2.8,5.1,2.7,9.7-1.4,14.2c-9.8,10.9-19.2,22.1-29.1,32.8c-9,9.7-21.1,12.3-33.8,12.5c-5.4,0.1-10.9,0-16.3,0L847.5,1010.5z"/>
  </g>
</svg>
