<svg width="431" height="430" class="bg-pattern" viewBox="0 0 431 430" fill="none" xmlns="http://www.w3.org/2000/svg" xml:space="preserve">
    <style type="text/css">
        .ptrn-ptch{fill-rule:evenodd;clip-rule:evenodd;}
    </style>
    <defs>
        <linearGradient id="fadeGrad" x1="0" y1="0" x2="0" y2="1">
            <stop offset="0" stop-color="white" stop-opacity="0"/>
            <stop offset="0.1" stop-color="white" stop-opacity="1"/>
            <stop offset="0.9" stop-color="white" stop-opacity="1"/>
            <stop offset="1" stop-color="white" stop-opacity="0"/>
        </linearGradient>
        <mask id="fade" maskContentUnits="objectBoundingBox">
            <rect width="1" height="1" fill="url(#fadeGrad)"/>
        </mask>
    </defs>
    <g mask="url(#fade)">
        <path class="ptrn-ptch" d="M0.5 408.5V0C2.73182 0.0762001 7.08184 0.180669 7.88048 0.0381208C7.91826 0.0127739 7.95809 0 8 0C7.9837 0.0143065 7.94296 0.0269695 7.88048 0.0381208C4.31359 2.43167 19.0838 116.943 27 174.5C23.6667 178.667 19 198.8 27 246C35 293.2 12.6667 374 0.5 408.5Z" fill="black"/>
        <path class="ptrn-ptch" d="M9.5 412L3 430H9L9.5 412Z" fill="black"/>
        <path class="ptrn-ptch" d="M40.5 430H20.5C22.5 422.833 26.2 404.5 25 388.5C23.5 368.5 26.5 339.5 28 340.5C29.5 341.5 29.5 369 31 380C35 389.2 39 417.167 40.5 430Z" fill="black"/>
        <path class="ptrn-ptch" d="M77 430H57C56.5 417 54.7 380.6 51.5 339C34.5 291.5 40 288.5 42 270.5C55 291 63 324.5 64 330C61.6 330.4 71.6667 396.833 77 430Z" fill="black"/>
        <path class="ptrn-ptch" d="M33 126C14.6 96.4 14.6667 29.6667 17 0H42C37 8.33333 31.9 33.4 51.5 67C76 109 74.5 149.5 74.5 203.5C85 258.5 101.5 373.5 102.5 371.5C103.5 369.5 127 53.5 129 0C155 41.5 139.5 134.5 135 175.5C141 214.5 130.5 321 129 321C127.5 321 124 380 124 388.5C124 395.3 119.333 419 117 430H97C55 265.5 56 255 53 189.5C59.5 125.5 57.5 139 51.5 105.5C43.5 156.5 45 153 37.5 159C30 154 33 145 33 126Z" fill="black"/>
        <path class="ptrn-ptch" d="M82 0H56C68 63.1667 93.1 198.3 97.5 233.5C118.3 206.7 95.8333 66.6667 82 0Z" fill="black"/>
        <path class="ptrn-ptch" d="M105 36.5L99.5 0H112.5L105 36.5Z" fill="black"/>
        <path class="ptrn-ptch" d="M430.194 408.5V0C427.962 0.0762001 423.612 0.180669 422.814 0.0381208C422.776 0.0127739 422.736 0 422.694 0C422.71 0.0143065 422.751 0.0269695 422.814 0.0381208C426.38 2.43167 411.61 116.943 403.694 174.5C407.027 178.667 411.694 198.8 403.694 246C395.694 293.2 418.027 374 430.194 408.5Z" fill="black"/>
        <path class="ptrn-ptch" d="M421.194 412L427.694 430H421.694L421.194 412Z" fill="black"/>
        <path class="ptrn-ptch" d="M390.194 430H410.194C408.194 422.833 404.494 404.5 405.694 388.5C407.194 368.5 404.194 339.5 402.694 340.5C401.194 341.5 401.194 369 399.694 380C395.694 389.2 391.694 417.167 390.194 430Z" fill="black"/>
        <path class="ptrn-ptch" d="M353.694 430H373.694C374.194 417 375.994 380.6 379.194 339C396.194 291.5 390.694 288.5 388.694 270.5C375.694 291 367.694 324.5 366.694 330C369.094 330.4 359.027 396.833 353.694 430Z" fill="black"/>
        <path class="ptrn-ptch" d="M397.694 126C416.094 96.4 416.027 29.6667 413.694 0H388.694C393.694 8.33333 398.794 33.4 379.194 67C354.694 109 356.194 149.5 356.194 203.5C345.694 258.5 329.194 373.5 328.194 371.5C327.194 369.5 303.694 53.5 301.694 0C275.694 41.5 291.194 134.5 295.694 175.5C289.694 214.5 300.194 321 301.694 321C303.194 321 306.694 380 306.694 388.5C306.694 395.3 311.361 419 313.694 430H333.694C375.694 265.5 374.694 255 377.694 189.5C371.194 125.5 373.194 139 379.194 105.5C387.194 156.5 385.694 153 393.194 159C400.694 154 397.694 145 397.694 126Z" fill="black"/>
        <path class="ptrn-ptch" d="M348.694 0H374.694C362.694 63.1667 337.594 198.3 333.194 233.5C312.394 206.7 334.861 66.6667 348.694 0Z" fill="black"/>
        <path class="ptrn-ptch" d="M325.694 36.5L331.194 0H318.194L325.694 36.5Z" fill="black"/>
        <path class="ptrn-ptch" d="M182 429H204C199 424.5 196.5 374 196.5 315C172.5 375.8 176.833 416.333 182 429Z" fill="black"/>
        <path class="ptrn-ptch" d="M148.5 429H173.5C161.5 429 174.5 231.5 174.5 194.5C174.5 176.5 180.333 58.8333 177 1H145.5C164.7 63.8 153.5 160.833 145.5 201.5L148.5 429Z" fill="black"/>
        <path class="ptrn-ptch" d="M207 1H187.5C192 4 199 59.5 203 88.5C208.2 86.9 207.833 29.5 207 1Z" fill="black"/>
        <path class="ptrn-ptch" d="M238.5 429H218C216 421.833 210.4 401.4 204 377C211.5 359 185.5 226 185.5 155C209.04 203.8 230.642 358 238.5 429Z" fill="black"/>
        <path class="ptrn-ptch" d="M276 429H246C253.5 342 261 339 271 308C282 299.5 252 117 252 84C274.5 123 291 269 293.5 312.5C292.93 304 279 389.333 276 429Z" fill="black"/>
        <path class="ptrn-ptch" d="M223.5 1H245V73C241.673 67.7725 235.456 55.1373 235.878 44.6251C234.614 58.2742 229.965 112.051 236 120.5C245 155 283 327.5 245 335C240 272 207 94.5 212.5 80C214.9 62.8 220.833 20.1667 223.5 1Z" fill="black"/>
    </g>
</svg>
