<svg width="80" height="80" viewBox="0 0 80 80" fill="none" xmlns="http://www.w3.org/2000/svg">
    <circle cx="40" cy="40" r="38" stroke="white" stroke-width="4"/>
    <path d="M32.8108 33.8527C32.8108 34.3743 32.3879 34.7972 31.8663 34.7972C31.3447 34.7972 30.9219 34.3743 30.9219 33.8527C30.9219 33.3311 31.3447 32.9083 31.8663 32.9083C32.3879 32.9083 32.8108 33.3311 32.8108 33.8527Z" stroke="white" stroke-width="2"/>
    <path d="M27.3994 32.1773C27.3994 32.1773 31.9941 25.8157 36.589 32.2768Z"/>
    <path d="M27.3994 32.1773C27.3994 32.1773 31.9941 25.8157 36.589 32.2768" stroke="white" stroke-width="2" stroke-miterlimit="10" stroke-linecap="round" stroke-linejoin="round"/>
    <path d="M35.0386 44.0543C35.0386 44.0543 35.669 46.2894 38.4773 46.6906Z"/>
    <path d="M35.0386 44.0543C35.0386 44.0543 35.669 46.2894 38.4773 46.6906" stroke="white" stroke-width="2" stroke-miterlimit="10" stroke-linecap="round" stroke-linejoin="round"/>
    <path d="M32.2117 55.3294L33.4673 56.1116C34.6342 56.8385 35.9536 57.2207 37.2961 57.2207H42.7621C44.0486 57.2207 45.3147 56.8697 46.4462 56.1995L47.9153 55.3294"/>
    <path d="M32.2117 55.3294L33.4673 56.1116C34.6342 56.8385 35.9536 57.2207 37.2961 57.2207H42.7621C44.0486 57.2207 45.3147 56.8697 46.4462 56.1995L47.9153 55.3294" stroke="white" stroke-width="2" stroke-miterlimit="10" stroke-linecap="round" stroke-linejoin="round"/>
    <path d="M35.1932 39.5992C32.65 41.0655 29.3904 44.294 29.7684 51.1455Z"/>
    <path d="M35.1932 39.5992C32.65 41.0655 29.3904 44.294 29.7684 51.1455" stroke="white" stroke-width="2" stroke-miterlimit="10" stroke-linecap="round" stroke-linejoin="round"/>
    <path d="M31.073 59.4701L31.3461 60.121C32.3741 62.5716 34.4256 64.4477 36.9581 65.2533L37.7226 65.4966C39.9141 66.1938 42.2887 66.0322 44.3654 65.0444C46.323 64.1133 47.8822 62.5117 48.7604 60.5298L49.2325 59.4645"/>
    <path d="M31.073 59.4701L31.3461 60.121C32.3741 62.5716 34.4256 64.4477 36.9581 65.2533L37.7226 65.4966C39.9141 66.1938 42.2887 66.0322 44.3654 65.0444C46.323 64.1133 47.8822 62.5117 48.7604 60.5298L49.2325 59.4645" stroke="white" stroke-width="2" stroke-miterlimit="10" stroke-linecap="round" stroke-linejoin="round"/>
    <path d="M20.6329 23.3212L18.9132 22.1273C17.3385 21.034 15.2255 21.1365 13.7639 22.3769C13.0192 23.0088 12.513 23.8761 12.3403 24.8374C11.7383 28.1874 10.8099 36.0874 14.9368 38.1679"/>
    <path d="M20.6329 23.3212L18.9132 22.1273C17.3385 21.034 15.2255 21.1365 13.7639 22.3769C13.0192 23.0088 12.513 23.8761 12.3403 24.8374C11.7383 28.1874 10.8099 36.0874 14.9368 38.1679" stroke="white" stroke-width="2" stroke-miterlimit="10" stroke-linecap="round" stroke-linejoin="round"/>
    <path d="M48.1062 34.0817C48.1062 34.6033 47.6833 35.0262 47.1617 35.0262C46.6401 35.0262 46.2173 34.6033 46.2173 34.0817C46.2173 33.5601 46.6401 33.1373 47.1617 33.1373C47.6833 33.1373 48.1062 33.5601 48.1062 34.0817Z" stroke="white" stroke-width="2"/>
    <path d="M51.6837 32.3932C51.6837 32.3932 47.089 26.0316 42.4941 32.4927Z"/>
    <path d="M51.6837 32.3932C51.6837 32.3932 47.089 26.0316 42.4941 32.4927" stroke="white" stroke-width="2" stroke-miterlimit="10" stroke-linecap="round" stroke-linejoin="round"/>
    <path d="M53.573 45.269C56.0184 43.5671 56.1976 39.4663 56.7825 35.3715C57.1838 32.5632 56.324 29.6402 53.2865 27.1185C50.2414 24.5905 46.1751 25.0295 44.1574 25.4664C43.1634 25.6815 42.1538 25.7721 41.1374 25.7345L38.4865 25.6362C37.6679 25.6059 36.8566 25.4842 36.0586 25.2987C34.1278 24.8503 29.8716 24.2809 26.7139 26.9025C23.6763 29.4243 22.8166 32.3472 23.2178 35.1555C23.8028 39.2503 23.982 43.3512 26.4273 45.053"/>
    <path d="M53.573 45.269C56.0184 43.5671 56.1976 39.4663 56.7825 35.3715C57.1838 32.5632 56.324 29.6402 53.2865 27.1185C50.2414 24.5905 46.1751 25.0295 44.1574 25.4664C43.1634 25.6815 42.1538 25.7721 41.1374 25.7345L38.4865 25.6362C37.6679 25.6059 36.8566 25.4842 36.0586 25.2987C34.1278 24.8503 29.8716 24.2809 26.7139 26.9025C23.6763 29.4243 22.8166 32.3472 23.2178 35.1555C23.8028 39.2503 23.982 43.3512 26.4273 45.053" stroke="white" stroke-width="2" stroke-miterlimit="10" stroke-linecap="round" stroke-linejoin="round"/>
    <path d="M44.9615 44.0543C44.9615 44.0543 44.3311 46.2894 41.5227 46.6906Z"/>
    <path d="M44.9615 44.0543C44.9615 44.0543 44.3311 46.2894 41.5227 46.6906" stroke="white" stroke-width="2" stroke-miterlimit="10" stroke-linecap="round" stroke-linejoin="round"/>
    <path d="M45.1074 39.9948C47.5987 41.5387 50.595 44.7771 50.2317 51.3614Z"/>
    <path d="M45.1074 39.9948C47.5987 41.5387 50.595 44.7771 50.2317 51.3614" stroke="white" stroke-width="2" stroke-miterlimit="10" stroke-linecap="round" stroke-linejoin="round"/>
    <path d="M45.1075 39.9948C44.5526 39.6509 43.9479 39.3599 43.385 39.1239C42.1818 38.6195 40.884 38.3924 39.5798 38.4238L39.5291 38.4251C38.0281 38.4612 36.5445 38.8287 35.2401 39.5723C35.2244 39.5812 35.2088 39.5902 35.1931 39.5992"/>
    <path d="M45.1075 39.9948C44.5526 39.6509 43.9479 39.3599 43.385 39.1239C42.1818 38.6195 40.884 38.3924 39.5798 38.4238L39.5291 38.4251C38.0281 38.4612 36.5445 38.8287 35.2401 39.5723C35.2244 39.5812 35.2088 39.5902 35.1931 39.5992" stroke="white" stroke-width="2" stroke-miterlimit="10" stroke-linecap="round" stroke-linejoin="round"/>
    <path d="M57.9498 58.239C57.9498 58.239 70.274 52.3549 61.7919 30.5673C53.3097 8.7797 40.0633 14.4408 40.0633 14.4408C40.0633 14.4408 26.6904 8.56377 18.2082 30.3514C9.72605 52.139 22.0502 58.023 22.0502 58.023"/>
    <path d="M57.9498 58.239C57.9498 58.239 70.274 52.3549 61.7919 30.5673C53.3097 8.7797 40.0633 14.4408 40.0633 14.4408C40.0633 14.4408 26.6904 8.56377 18.2082 30.3514C9.72605 52.139 22.0502 58.023 22.0502 58.023" stroke="white" stroke-width="2" stroke-miterlimit="10" stroke-linecap="round" stroke-linejoin="round"/>
    <path d="M59.3672 23.5371L61.0869 22.3433C62.6616 21.25 64.7746 21.3525 66.2362 22.5928C66.9809 23.2248 67.4871 24.0921 67.6598 25.0533C68.2618 28.4033 69.1902 36.3034 65.0632 38.3838"/>
    <path d="M59.3672 23.5371L61.0869 22.3433C62.6616 21.25 64.7746 21.3525 66.2362 22.5928C66.9809 23.2248 67.4871 24.0921 67.6598 25.0533C68.2618 28.4033 69.1902 36.3034 65.0632 38.3838" stroke="white" stroke-width="2" stroke-miterlimit="10" stroke-linecap="round" stroke-linejoin="round"/>
</svg>
