<svg preserveAspectRatio="xMinYMin slice" viewBox="0 0 874 198" fill="none" xmlns="http://www.w3.org/2000/svg">
<path d="M790.531 91.0817L793.027 107.734L795.822 113.121C798.366 118.02 799.685 123.385 799.683 128.82C799.686 134.036 798.471 139.191 796.122 143.933L795.123 145.965"/>
<path d="M790.531 91.0817L793.027 107.734L795.822 113.121C798.366 118.02 799.685 123.385 799.683 128.82C799.686 134.036 798.471 139.191 796.122 143.933L795.123 145.965" stroke="black" stroke-linecap="round" stroke-linejoin="round"/>
<path d="M802.445 69.5349C806.93 69.543 811.228 71.192 814.402 74.1219C817.576 77.0517 819.368 81.0242 819.385 85.1717V143.01C819.385 143.826 819.035 144.609 818.411 145.186C817.787 145.764 816.94 146.088 816.057 146.088H781.278L783.309 142.794C785.522 139.193 787.053 135.268 787.835 131.19L788.733 126.203"/>
<path d="M802.445 69.5349C806.93 69.543 811.228 71.192 814.402 74.1219C817.576 77.0517 819.368 81.0242 819.385 85.1717V143.01C819.385 143.826 819.035 144.609 818.411 145.186C817.787 145.764 816.94 146.088 816.057 146.088H781.278L783.309 142.794C785.522 139.193 787.053 135.268 787.835 131.19L788.733 126.203" stroke="black" stroke-linecap="round" stroke-linejoin="round"/>
<path d="M743.671 69.5349C739.324 69.5379 735.145 71.0861 731.998 73.8591C728.851 76.6321 726.977 80.4178 726.764 84.433C726.748 84.679 726.748 84.9257 726.764 85.1717"/>
<path d="M743.671 69.5349C739.324 69.5379 735.145 71.0861 731.998 73.8591C728.851 76.6321 726.977 80.4178 726.764 84.433C726.748 84.679 726.748 84.9257 726.764 85.1717" stroke="black" stroke-linecap="round" stroke-linejoin="round"/>
<path d="M726.73 83.9097C726.73 86.4645 739.477 145.995 739.477 145.995H756.118V139.07L748.63 138.3L756.118 116.23L751.392 83.9097"/>
<path d="M726.73 83.9097C726.73 86.4645 739.477 145.995 739.477 145.995H756.118V139.07L748.63 138.3L756.118 116.23L751.392 83.9097" stroke="black" stroke-linecap="round" stroke-linejoin="round"/>
<path d="M773.058 109.027C766.559 109.031 760.163 107.529 754.454 104.656Z"/>
<path d="M773.058 109.027C766.559 109.031 760.163 107.529 754.454 104.656" stroke="black" stroke-linecap="round" stroke-linejoin="round"/>
<path d="M802.445 69.5349H784.141C778.066 69.5307 772.222 67.384 767.8 63.5325L747.831 46.2027C745.409 44.7069 742.54 43.9554 739.63 44.0548C736.72 44.1543 733.918 45.0997 731.623 46.7567L719.808 55.4063V63.5017L715.648 66.8261V77.8458H728.794"/>
<path d="M802.445 69.5349H784.141C778.066 69.5307 772.222 67.384 767.8 63.5325L747.831 46.2027C745.409 44.7069 742.54 43.9554 739.63 44.0548C736.72 44.1543 733.918 45.0997 731.623 46.7567L719.808 55.4063V63.5017L715.648 66.8261V77.8458H728.794" stroke="black" stroke-linecap="round" stroke-linejoin="round"/>
<path d="M784.706 108.196C784.706 109.584 783.477 110.774 781.878 110.774C780.278 110.774 779.049 109.584 779.049 108.196C779.049 106.808 780.278 105.618 781.878 105.618C783.477 105.618 784.706 106.808 784.706 108.196Z" stroke="black"/>
<path d="M584.469 141.594C594.454 125.372 608.898 135.438 608.898 135.438C606.708 129.806 602.395 125.095 596.75 122.171C597.216 84.9562 573.453 72.0589 568.594 67.1339C563.735 62.2089 578.578 59.1923 578.578 59.1923C578.578 59.1923 578.246 53.898 561.106 55.8372C550.323 57.0684 547.46 57.2223 547.46 57.2223H534.248C489.851 55.0369 485.923 84.433 485.923 84.433H478.136C478.136 84.433 492.879 84.7716 514.379 84.9255"/>
<path d="M584.469 141.594C594.454 125.372 608.898 135.438 608.898 135.438C606.708 129.806 602.395 125.095 596.75 122.171C597.216 84.9562 573.453 72.0589 568.594 67.1339C563.735 62.2089 578.578 59.1923 578.578 59.1923C578.578 59.1923 578.246 53.898 561.106 55.8372C550.323 57.0684 547.46 57.2223 547.46 57.2223H534.248C489.851 55.0369 485.923 84.433 485.923 84.433H478.136C478.136 84.433 492.879 84.7716 514.379 84.9255" stroke="black" stroke-linecap="round" stroke-linejoin="round"/>
<path d="M525.628 84.9255H532.85C563.968 84.9255 591.991 112.783 585.534 124.941"/>
<path d="M525.628 84.9255H532.85C563.968 84.9255 591.991 112.783 585.534 124.941" stroke="black" stroke-linecap="round" stroke-linejoin="round"/>
<path d="M514.346 84.8947C514.346 84.8947 513.713 92.4361 525.595 96.4376V84.9562"/>
<path d="M514.346 84.8947C514.346 84.8947 513.713 92.4361 525.595 96.4376V84.9562" stroke="black" stroke-linecap="round" stroke-linejoin="round"/>
<path d="M584.901 132.236C584.901 133.488 583.792 134.568 582.339 134.568C580.887 134.568 579.777 133.488 579.777 132.236C579.777 130.984 580.887 129.904 582.339 129.904C583.792 129.904 584.901 130.984 584.901 132.236Z" stroke="black"/>
<path d="M145.106 117.784C142.587 119.08 139.919 120.112 137.152 120.862C140.421 126.813 142.12 133.395 142.111 140.07H154.392C154.42 131.828 151.107 123.877 145.106 117.784Z" stroke="black" stroke-linecap="round" stroke-linejoin="round"/>
<path d="M137.152 120.801C140.421 126.752 142.12 133.333 142.111 140.008H154.392C154.412 131.777 151.099 123.838 145.106 117.753C142.585 119.039 139.917 120.061 137.152 120.801Z" stroke="black" stroke-linecap="round" stroke-linejoin="round"/>
<path d="M115.32 79.0612C115.311 85.1253 112.822 90.9618 108.353 95.3984C103.883 99.8349 97.7635 102.543 91.2239 102.978C93.1866 106.413 95.738 109.532 98.7788 112.213C103.793 116.639 109.98 119.766 116.716 121.279C123.453 122.792 130.501 122.638 137.152 120.831C139.919 120.082 142.587 119.049 145.106 117.753C151.099 123.838 154.412 131.777 154.392 140.008H168.337V107.072C168.341 102.136 167.135 97.2631 164.809 92.8204C161.885 87.2366 157.324 82.5245 151.646 79.2212C145.968 75.9178 139.4 74.1559 132.692 74.1362"/>
<path d="M115.32 79.0612C115.311 85.1253 112.822 90.9618 108.353 95.3984C103.883 99.8349 97.7635 102.543 91.2239 102.978C93.1866 106.413 95.738 109.532 98.7788 112.213C103.793 116.639 109.98 119.766 116.716 121.279C123.453 122.792 130.501 122.638 137.152 120.831C139.919 120.082 142.587 119.049 145.106 117.753C151.099 123.838 154.412 131.777 154.392 140.008H168.337V107.072C168.341 102.136 167.135 97.2631 164.809 92.8204C161.885 87.2366 157.324 82.5245 151.646 79.2212C145.968 75.9178 139.4 74.1559 132.692 74.1362" stroke="black" stroke-linecap="round" stroke-linejoin="round"/>
<path d="M121.277 131.82V140.008H109.362V128.896"/>
<path d="M121.277 131.82V140.008H109.362V128.896" stroke="black" stroke-linecap="round" stroke-linejoin="round"/>
<path d="M91.3238 126.033V140.008H109.362"/>
<path d="M91.3238 126.033V140.008H109.362" stroke="black" stroke-linecap="round" stroke-linejoin="round"/>
<path d="M80.4408 135.606H80.94C82.3553 135.68 83.772 135.487 85.1035 135.037C86.435 134.587 87.6531 133.89 88.6834 132.99C89.7137 132.089 90.5344 131.004 91.0954 129.8C91.6563 128.596 91.9456 127.298 91.9456 125.987C91.9456 124.676 91.6563 123.379 91.0954 122.175C90.5344 120.971 89.7137 119.885 88.6834 118.985C87.6531 118.084 86.435 117.388 85.1035 116.938C83.772 116.488 82.3553 116.294 80.94 116.368"/>
<path d="M80.4408 135.606H80.94C82.3553 135.68 83.772 135.487 85.1035 135.037C86.435 134.587 87.6531 133.89 88.6834 132.99C89.7137 132.089 90.5344 131.004 91.0954 129.8C91.6563 128.596 91.9456 127.298 91.9456 125.987C91.9456 124.676 91.6563 123.379 91.0954 122.175C90.5344 120.971 89.7137 119.885 88.6834 118.985C87.6531 118.084 86.435 117.388 85.1035 116.938C83.772 116.488 82.3553 116.294 80.94 116.368" stroke="black" stroke-linecap="round" stroke-linejoin="round"/>
<path d="M61.1044 111.813C66.201 111.118 71.0922 109.474 75.4819 106.98C77.8843 105.579 80.0207 103.821 81.8053 101.778C84.1806 102.681 86.7254 103.141 89.2936 103.132H91.1241C97.6637 102.697 103.783 99.9889 108.253 95.5523C112.722 91.1157 115.211 85.2792 115.22 79.2152C115.198 75.531 113.608 72.0032 110.793 69.3959C109.404 68.0987 107.75 67.069 105.928 66.3664C104.106 65.6637 102.151 65.3019 100.177 65.302H89.1937C83.8639 65.2925 78.7452 67.2282 74.9494 70.6888C74.849 70.736 74.7675 70.8114 74.7164 70.9042C73.501 72.1379 72.3884 73.455 71.3883 74.8442C71.2988 74.9606 71.2208 75.0842 71.1553 75.2136C66.7427 82.0283 63.7828 89.5619 62.4356 97.4069C61.4236 102.149 60.9772 106.98 61.1044 111.813Z" stroke="black" stroke-linecap="round" stroke-linejoin="round"/>
<path d="M61.1044 111.812C61.6702 133.359 77.4455 135.545 80.4408 135.73H80.94"/>
<path d="M61.1044 111.812C61.6702 133.359 77.4455 135.545 80.4408 135.73H80.94" stroke="black" stroke-linecap="round" stroke-linejoin="round"/>
<path d="M80.94 116.43C79.4924 116.43 78.1041 116.962 77.0805 117.908C76.0569 118.855 75.4819 120.139 75.4819 121.478C75.4819 122.817 76.0569 124.101 77.0805 125.047C78.1041 125.994 79.4924 126.526 80.94 126.526"/>
<path d="M80.94 116.43C79.4924 116.43 78.1041 116.962 77.0805 117.908C76.0569 118.855 75.4819 120.139 75.4819 121.478C75.4819 122.817 76.0569 124.101 77.0805 125.047C78.1041 125.994 79.4924 126.526 80.94 126.526" stroke="black" stroke-linecap="round" stroke-linejoin="round"/>
<path d="M71.5547 74.6903C72.5548 73.3011 73.6674 71.984 74.8828 70.7503C73.5687 71.9041 72.4471 73.2319 71.5547 74.6903Z" stroke="black" stroke-linecap="round" stroke-linejoin="round"/>
<path d="M61.1044 111.812C55.6744 112.702 50.1279 112.806 44.6634 112.12Z"/>
<path d="M61.1044 111.812C55.6744 112.702 50.1279 112.806 44.6634 112.12" stroke="black" stroke-linecap="round" stroke-linejoin="round"/>
<path d="M81.8053 101.685C84.7433 98.442 86.5838 94.4702 87.097 90.2656Z"/>
<path d="M81.8053 101.685C84.7433 98.442 86.5838 94.4702 87.097 90.2656" stroke="black" stroke-linecap="round" stroke-linejoin="round"/>
<path d="M125.935 74.1055C125.935 75.4933 124.707 76.6836 123.107 76.6836C121.508 76.6836 120.279 75.4933 120.279 74.1055C120.279 72.7177 121.508 71.5273 123.107 71.5273C124.707 71.5273 125.935 72.7177 125.935 74.1055Z" stroke="black"/>
<path d="M281.743 56.5909C280 56.5851 278.283 56.9811 276.748 57.7432C275.212 58.5054 273.906 59.6095 272.948 60.9558C271.99 62.3022 271.41 63.8482 271.26 65.454C271.11 67.0599 271.396 68.6749 272.091 70.1531C272.786 71.6312 273.868 72.9258 275.24 73.9198C276.612 74.9138 278.23 75.5758 279.948 75.8459C281.666 76.1161 283.43 75.9858 285.08 75.4669C286.73 74.9481 288.214 74.057 289.398 72.8742"/>
<path d="M281.743 56.5909C280 56.5851 278.283 56.9811 276.748 57.7432C275.212 58.5054 273.906 59.6095 272.948 60.9558C271.99 62.3022 271.41 63.8482 271.26 65.454C271.11 67.0599 271.396 68.6749 272.091 70.1531C272.786 71.6312 273.868 72.9258 275.24 73.9198C276.612 74.9138 278.23 75.5758 279.948 75.8459C281.666 76.1161 283.43 75.9858 285.08 75.4669C286.73 74.9481 288.214 74.057 289.398 72.8742" stroke="black" stroke-linecap="round" stroke-linejoin="round"/>
<path d="M307.203 72.0431C307.04 71.8604 306.896 71.6647 306.77 71.4583Z"/>
<path d="M307.203 72.0431C307.04 71.8604 306.896 71.6647 306.77 71.4583" stroke="black" stroke-linecap="round" stroke-linejoin="round"/>
<path d="M315.457 56.5909C317.203 56.5859 318.923 56.9844 320.461 57.7503C321.998 58.5162 323.304 59.6251 324.261 60.9765C325.217 62.3278 325.794 63.8787 325.938 65.4884C326.081 67.098 325.788 68.7154 325.085 70.1937C324.381 71.6719 323.289 72.9642 321.908 73.9531C320.528 74.942 318.902 75.5963 317.178 75.8564C315.455 76.1166 313.688 75.9745 312.039 75.4429C310.39 74.9114 308.911 74.0072 307.736 72.8126L307.436 72.4741"/>
<path d="M315.457 56.5909C317.203 56.5859 318.923 56.9844 320.461 57.7503C321.998 58.5162 323.304 59.6251 324.261 60.9765C325.217 62.3278 325.794 63.8787 325.938 65.4884C326.081 67.098 325.788 68.7154 325.085 70.1937C324.381 71.6719 323.289 72.9642 321.908 73.9531C320.528 74.942 318.902 75.5963 317.178 75.8564C315.455 76.1166 313.688 75.9745 312.039 75.4429C310.39 74.9114 308.911 74.0072 307.736 72.8126L307.436 72.4741" stroke="black" stroke-linecap="round" stroke-linejoin="round"/>
<path d="M287.833 77.9531C287.395 79.9038 286.261 81.6618 284.614 82.9455C282.966 84.2292 280.901 84.9642 278.748 85.0328"/>
<path d="M287.833 77.9531C287.395 79.9038 286.261 81.6618 284.614 82.9455C282.966 84.2292 280.901 84.9642 278.748 85.0328" stroke="black" stroke-linecap="round" stroke-linejoin="round"/>
<path d="M309.267 77.9531C309.705 79.9038 310.839 81.6618 312.486 82.9455C314.134 84.2292 316.199 84.9642 318.352 85.0328"/>
<path d="M309.267 77.9531C309.705 79.9038 310.839 81.6618 312.486 82.9455C314.134 84.2292 316.199 84.9642 318.352 85.0328" stroke="black" stroke-linecap="round" stroke-linejoin="round"/>
<path d="M309.267 77.9531L305.938 92.328C305.938 93.2913 305.525 94.2151 304.788 94.8963C304.052 95.5775 303.053 95.9602 302.011 95.9602H295.089C294.047 95.9602 293.048 95.5775 292.312 94.8963C291.575 94.2151 291.162 93.2913 291.162 92.328L287.833 77.9531C287.831 76.1484 288.372 74.3788 289.398 72.8434C289.849 72.4418 290.241 71.9863 290.563 71.4891C291.617 70.3834 292.924 69.5085 294.389 68.9276C295.854 68.3467 297.44 68.0744 299.033 68.1304C300.626 68.1864 302.185 68.5693 303.598 69.2513C305.011 69.9333 306.243 70.8975 307.203 72.0739L307.536 72.5048C308.688 74.1205 309.29 76.018 309.267 77.9531Z" stroke="black" stroke-linecap="round" stroke-linejoin="round"/>
<path d="M310.198 112.12C304.053 108.309 299.59 102.586 297.618 95.9909H302.011C303.053 95.9909 304.052 95.6082 304.788 94.9271C305.525 94.2459 305.938 93.322 305.938 92.3587L309.267 77.9839"/>
<path d="M310.198 112.12C304.053 108.309 299.59 102.586 297.618 95.9909H302.011C303.053 95.9909 304.052 95.6082 304.788 94.9271C305.525 94.2459 305.938 93.322 305.938 92.3587L309.267 77.9839" stroke="black" stroke-linecap="round" stroke-linejoin="round"/>
<path d="M368.308 115.229C365.565 116.406 362.578 117.016 359.555 117.014H327.172C326.218 117.061 325.263 117.061 324.31 117.014"/>
<path d="M368.308 115.229C365.565 116.406 362.578 117.016 359.555 117.014H327.172C326.218 117.061 325.263 117.061 324.31 117.014" stroke="black" stroke-linecap="round" stroke-linejoin="round"/>
<path d="M310.198 112.12L310.931 117.384L312.195 125.849"/>
<path d="M310.198 112.12L310.931 117.384L312.195 125.849" stroke="black" stroke-linecap="round" stroke-linejoin="round"/>
<path d="M341.117 77.9531H359.555C363.287 77.9531 366.952 78.8702 370.176 80.6106C373.399 82.351 376.065 84.8522 377.9 87.8583C379.735 90.8644 380.673 94.2674 380.619 97.7191C380.566 101.171 379.521 104.547 377.593 107.503"/>
<path d="M341.117 77.9531H359.555C363.287 77.9531 366.952 78.8702 370.176 80.6106C373.399 82.351 376.065 84.8522 377.9 87.8583C379.735 90.8644 380.673 94.2674 380.619 97.7191C380.566 101.171 379.521 104.547 377.593 107.503" stroke="black" stroke-linecap="round" stroke-linejoin="round"/>
<path d="M360.22 92.3895V92.6358C359.716 96.4338 360.067 100.287 361.253 103.953C362.439 107.619 364.433 111.018 367.109 113.936L374.831 122.278C375.539 123.043 376.064 123.937 376.374 124.902C376.684 125.867 376.77 126.882 376.628 127.88L374.564 142.409"/>
<path d="M360.22 92.3895V92.6358C359.716 96.4338 360.067 100.287 361.253 103.953C362.439 107.619 364.433 111.018 367.109 113.936L374.831 122.278C375.539 123.043 376.064 123.937 376.374 124.902C376.684 125.867 376.77 126.882 376.628 127.88L374.564 142.409" stroke="black" stroke-linecap="round" stroke-linejoin="round"/>
<path d="M321.547 95.9909L324.276 103.871C325.38 107.05 325.642 110.428 325.042 113.721L323.078 124.433C322.882 125.378 322.882 126.35 323.078 127.295V127.973C323.381 129.247 323.323 130.572 322.912 131.82L319.883 140.901"/>
<path d="M321.547 95.9909L324.276 103.871C325.38 107.05 325.642 110.428 325.042 113.721L323.078 124.433C322.882 125.378 322.882 126.35 323.078 127.295V127.973C323.381 129.247 323.323 130.572 322.912 131.82L319.883 140.901" stroke="black" stroke-linecap="round" stroke-linejoin="round"/>
<path d="M366.477 125.849L365.113 139.331" stroke="black" stroke-linecap="round" stroke-linejoin="round"/>
<path d="M335.525 77.9839C335.525 79.3717 334.296 80.562 332.697 80.562C331.097 80.562 329.868 79.3717 329.868 77.9839C329.868 76.5961 331.097 75.4058 332.697 75.4058C334.296 75.4058 335.525 76.5961 335.525 77.9839Z" stroke="black"/>
<path d="M380.622 98.6074V104.764C380.622 107 381.582 109.146 383.292 110.727C385.003 112.309 387.322 113.198 389.741 113.198"/>
<path d="M380.622 98.6074V104.764C380.622 107 381.582 109.146 383.292 110.727C385.003 112.309 387.322 113.198 389.741 113.198" stroke="black" stroke-linecap="round" stroke-linejoin="round"/>
</svg>
