<svg xmlns="http://www.w3.org/2000/svg" width="80" height="80" viewBox="0 0 80 80">
  <g id="Group_2734" data-name="Group 2734" transform="translate(-2687.349 861.146)">
    <path id="Path_88" data-name="Path 88" d="M2687.349-821.146a40.011,40.011,0,0,1,40.008-40,39.986,39.986,0,0,1,39.992,40,40.008,40.008,0,0,1-39.992,40,40.021,40.021,0,0,1-40.008-40Zm4.462,0a35.545,35.545,0,0,0,35.546,35.55,35.545,35.545,0,0,0,35.547-35.55,35.545,35.545,0,0,0-35.547-35.55A35.545,35.545,0,0,0,2691.811-821.146Z" transform="translate(0 0)" fill="#fff"/>
    <path id="Path_89" data-name="Path 89" d="M2736.717-752.955c-1.032-.017-2.181.017-3.163-.034l1.615-2.559,5.112-8.114-14.352-.084-.033,3.463,6.427.067-3.047,4.651-3.9,5.956,14.9.084.033-3.412-3.6-.017Z" transform="translate(-20.049 -51.126)" fill="#fff"/>
    <path id="Path_90" data-name="Path 90" d="M2768.971-761.768c-2.015-2.292-5.528-2.643-8.292-1.823a6.783,6.783,0,0,0-4.645,5.169,8.877,8.877,0,0,0-.117,2.727,6.751,6.751,0,0,0,2.981,5.036c2.247,1.589,5.861,1.522,8.258.3a6.881,6.881,0,0,0,3.08-3.379,8.461,8.461,0,0,0,.516-1.957,7.405,7.405,0,0,0-1.781-6.073Zm-3.929,7.277a2.371,2.371,0,0,1-.832.585,2.362,2.362,0,0,1-2.564-.569,2.864,2.864,0,0,1-.633-1.221,4.341,4.341,0,0,1,.35-2.944,2.275,2.275,0,0,1,2.1-1.087,2.312,2.312,0,0,1,1.981,1.372,4.139,4.139,0,0,1,.2,2.66,3.55,3.55,0,0,1-.6,1.2Z" transform="translate(-36.119 -50.996)" fill="#fff"/>
    <path id="Path_91" data-name="Path 91" d="M2800.285-762.292c-2.348-1.957-6.343-1.907-8.924-.519a6.86,6.86,0,0,0-3.363,5.069,8.525,8.525,0,0,0-.033,2.158,6.771,6.771,0,0,0,3.429,5.387,8.8,8.8,0,0,0,7.892-.017,6.965,6.965,0,0,0,3.263-4.032,9.029,9.029,0,0,0,.25-1.339,7.173,7.173,0,0,0-2.514-6.708Zm-2.63,6.926a2.393,2.393,0,0,1-1.116,1.523,2.39,2.39,0,0,1-2.514-.151,2.555,2.555,0,0,1-.966-1.573,4.322,4.322,0,0,1-.1-.92,3.031,3.031,0,0,1,1.282-2.744,2.437,2.437,0,0,1,2.414.084,3.415,3.415,0,0,1,1.049,3.58,1.683,1.683,0,0,0-.05.2Z" transform="translate(-53.015 -51.092)" fill="#fff"/>
    <path id="Path_92" data-name="Path 92" d="M2814.725-771.911a3.038,3.038,0,0,1-2.83-.234v-1.087a3.164,3.164,0,0,0,1.848.669.558.558,0,0,0,.466-.318.267.267,0,0,0-.116-.335c-.516-.418-1.232-.435-1.749-.87a1.416,1.416,0,0,1-.516-1.087,1.359,1.359,0,0,1,.8-1.171,3.338,3.338,0,0,1,2.6.2l-.033.987a2.711,2.711,0,0,0-1.9-.435.408.408,0,0,0-.25.218.38.38,0,0,0,.067.335c.566.384,1.282.435,1.832.9a1.3,1.3,0,0,1,.466,1.271,1.283,1.283,0,0,1-.683.954Z" transform="translate(-65.624 -44.417)" fill="#fff" fill-rule="evenodd"/>
    <path id="Path_93" data-name="Path 93" d="M2803.518-771.685l.033-4.667h1.182l-.033,4.684Z" transform="translate(-61.243 -44.509)" fill="#fff" fill-rule="evenodd"/>
    <path id="Path_94" data-name="Path 94" d="M2790.64-771.792v-1.84h-2.3l-.017,1.84h-1.182l.033-4.7h1.182v1.857l2.264.033.067-1.874,1.148.017-.033,4.684Z" transform="translate(-52.611 -44.435)" fill="#fff" fill-rule="evenodd"/>
    <path id="Path_95" data-name="Path 95" d="M2760.495-771.935v-2.894l-1.315,1.573c-.466-.468-.882-1.02-1.332-1.522-.034.953-.034,1.857-.051,2.827h-1.149l.017-4.7,1.032-.017c.5.569.982,1.154,1.482,1.756l1.532-1.723h1l-.05,4.7Z" transform="translate(-36.534 -44.343)" fill="#fff" fill-rule="evenodd"/>
    <path id="Path_96" data-name="Path 96" d="M2743.3-772.022l.017-4.718,3.4.034v.853l-2.181-.017-.017,1c.683.017,1.4,0,2.081.017v.87l-2.081-.017a7.912,7.912,0,0,0-.05,1.1l2.264.034v.853l-3.43-.017Z" transform="translate(-29.498 -44.306)" fill="#fff" fill-rule="evenodd"/>
    <path id="Path_97" data-name="Path 97" d="M2730.016-772.057v-2.877c-.466.468-.865,1.037-1.332,1.573-.466-.5-.882-1.038-1.332-1.523l-.05,2.811h-1.148l.033-4.7h1.049l1.465,1.74,1.532-1.707h1l-.05,4.7-1.166-.017Z" transform="translate(-20.458 -44.287)" fill="#fff" fill-rule="evenodd"/>
    <path id="Path_98" data-name="Path 98" d="M2777.346-775.816a1.112,1.112,0,0,0-.7-.669,13.812,13.812,0,0,0-2.764-.1l-.05,4.684H2775l.033-1.823a4.576,4.576,0,0,0,1.748-.184A1.583,1.583,0,0,0,2777.346-775.816Zm-1.215,1c-.3.268-.732.1-1.115.134v-.971c.416.034,1.049-.184,1.215.335a.547.547,0,0,1-.1.5Z" transform="translate(-45.593 -44.376)" fill="#fff" fill-rule="evenodd"/>
    <path id="Path_99" data-name="Path 99" d="M2753.772-821.754v-.552h10.656v.552l-.25.552,6.06,19.038h-15.384v-6.023h-2.247v6.023h-3.213v-6.023h-2.148v6.023h-3.2v-6.023h-2.264v6.023H2726.4l6.11-19.105-.366-.485v-.552H2742.8v.552l-.316.519,2.364,6.692,6.943-.017,2.331-6.558Z" transform="translate(-20.588 -20.388)" fill="#fff" fill-rule="evenodd"/>
    <path id="Path_100" data-name="Path 100" d="M2810.99-822.094a1.7,1.7,0,0,1,.849.234,1.548,1.548,0,0,1,.616.652,1.8,1.8,0,0,1,.233.887,1.683,1.683,0,0,1-.233.887,1.733,1.733,0,0,1-.616.636,1.71,1.71,0,0,1-.849.234,1.714,1.714,0,0,1-.849-.234,1.614,1.614,0,0,1-.616-.636,1.8,1.8,0,0,1-.233-.887,1.8,1.8,0,0,1,.233-.887,1.922,1.922,0,0,1,.616-.652A1.619,1.619,0,0,1,2810.99-822.094Zm0,.284a1.374,1.374,0,0,0-1,.435,1.418,1.418,0,0,0-.416,1.037,1.418,1.418,0,0,0,.416,1.037,1.374,1.374,0,0,0,1,.435,1.373,1.373,0,0,0,1-.435,1.416,1.416,0,0,0,.416-1.037,1.417,1.417,0,0,0-.416-1.037A1.373,1.373,0,0,0,2810.99-821.81Zm-.383,2.426h-.3v-1.89h.633a1.686,1.686,0,0,1,.483.05.393.393,0,0,1,.216.184.553.553,0,0,1,.084.267.494.494,0,0,1-.15.368.583.583,0,0,1-.383.167.787.787,0,0,1,.2.151,2.6,2.6,0,0,1,.233.335l.216.368h-.366l-.167-.3a2,2,0,0,0-.266-.418.378.378,0,0,0-.267-.1h-.183v.819Zm0-1.64v.569h.366a.587.587,0,0,0,.333-.066.25.25,0,0,0,.1-.218.23.23,0,0,0-.1-.218.64.64,0,0,0-.366-.067Z" transform="translate(-64.287 -20.499)" fill="#fff"/>
  </g>
</svg>